<?xml version="1.0" standalone="no"?>
<!DOCTYPE svg PUBLIC "-//W3C//DTD SVG 20010904//EN"
 "http://www.w3.org/TR/2001/REC-SVG-20010904/DTD/svg10.dtd">
<svg version="1.0" xmlns="http://www.w3.org/2000/svg"
 width="337.000000pt" height="337.000000pt" viewBox="0 0 337.000000 337.000000"
 preserveAspectRatio="xMidYMid meet">
<metadata>
Created by potrace 1.11, written by Peter Selinger 2001-2013
</metadata>
<g transform="translate(0.000000,337.000000) scale(0.100000,-0.100000)"
fill="#000000" stroke="none">
<path d="M350 3356 c-157 -45 -297 -182 -337 -332 -4 -16 -9 -614 -10 -1329
-3 -1406 -5 -1335 49 -1445 30 -60 141 -169 201 -199 109 -53 58 -51 1422 -51
1019 0 1281 3 1326 14 147 34 273 143 331 286 l23 55 0 1325 c0 1477 6 1358
-69 1473 -58 91 -134 153 -234 191 l-57 21 -1300 2 c-1023 1 -1310 -1 -1345
-11z"/>
</g>
</svg>
